<svg xmlns="http://www.w3.org/2000/svg" viewBox="0 0 93.6 75.8"><defs><style>.cls-1{fill:#0c5ad6;}.cls-2{fill:#1d6bfa;}.cls-3{fill:#76c7fb;}.cls-4{fill:#f7b92d;}.cls-5{fill:#1d323b;}.cls-6{fill:#ef636f;}.cls-7{fill:#48b7e7;}.cls-8{fill:#95a7ee;}.cls-9{fill:#c2bfc0;}</style></defs><g id="Layer_2" data-name="Layer 2"><g id="Layer_1-2" data-name="Layer 1"><path class="cls-1" d="M65.65,49.25c-2,.56-2,.56-2,2.77q0,10.65,0,21.29c0,1.87-.45,2.36-2.3,2.36h-42c-1.86,0-2.31-.49-2.31-2.38V45.2c0-.4,0-.8-.05-1.2a11.11,11.11,0,0,1,2.52-2.86V70.39a2.74,2.74,0,0,0,.48.13h40c.41,0,.83,0,.91-.52,0-6,0-12,0-18,0-1-.05-2,1-2.56C63.12,49.5,64.36,49,65.65,49.25Z"/><path class="cls-2" d="M65.65,49.25c-1.29-.26-2.53.25-3.8.21l-.65-1a18.61,18.61,0,0,1,3.42-1.87c.41-.23.92-.39,1-.89.39-1.78.74-3.56,1.11-5.34a31.82,31.82,0,0,1,3-5.1c.42-.48,1-.75,1.33-1.3.36-.15.69-.33.6-.81l.27-.23c1.52-.61,3-1.31,4.57-1.81a24.71,24.71,0,0,1,9.67-1,25.32,25.32,0,0,1-4.08,2.09s0-.08-.08-.08c-1.47-.15-2.6.77-3.84,1.29-.36.15,0,.52.31.68l2,4.43a45.55,45.55,0,0,1,2.37,8.74c.06.43.07.86.11,1.3a.2.2,0,0,1,0,.21l.15.9c-.09.17-.19.33-.28.49-1-.42-.54-1.93-1.63-2.33-.23.38,0,.62,0,.88.21,1.53-.4,2.27-1.85,2.69-.81.24-1.69-.1-2.43.4H75.43c-.27-1.21.14-2.47-.36-3.62a22.24,22.24,0,0,0-.7-4.73,30.71,30.71,0,0,0-.53-3.83c-.41,1-.53.37-.71.11a6.15,6.15,0,0,0-2.29-2.35c-.46-.23-.82-.18-1,.3-.58,2.21-1.09,4.43-1.7,6.63a19.13,19.13,0,0,0-1,3.46c-.08.85-1.32.58-1.42,1.43Z"/><path class="cls-3" d="M13.55,43.82c0,8.31-.23,16.62.38,24.92l-2.48-.29a21.3,21.3,0,0,1-1.22-3.72,7,7,0,0,0,.14-3.18,37.46,37.46,0,0,1,.27-7.78c.13-1.23.28-2.46.43-3.68-1.48,2.83-1.69,5.92-2.13,9A22.6,22.6,0,0,0,8,64.15a31.85,31.85,0,0,1-.51,4,3.13,3.13,0,0,1-2-.43A6.37,6.37,0,0,1,4.92,65,40.36,40.36,0,0,1,5,54.62c.61-3.89,1.54-7.71,4.13-10.88A4.75,4.75,0,0,0,13.55,43.82Z"/><path class="cls-2" d="M37,3c.15-1.84,1-2.82,2.62-3,2-.2,2.93.71,3.7,3.73h5.78c.46.41.1,1.14.79,1.22a1.81,1.81,0,0,0-.51,2c.28.88,1,.49,1.51.51,2.71.12,5.42-.14,8.12.15H49.69c-.58.94.37,2.28-1.15,2.52-.21,0-.41,0-.5.27l0,0a1.35,1.35,0,0,0-1.45.76l0,0c-1.37.11-2.57.86-4,.74-2.82-.25-5.7.27-8.5-.49h0c-.12-.27-.37-.26-.61-.27h-.08l-.31-.21,0,0c-.07-.28-.22-.32-.44-.15-1.59-.39-2.56-1.26-2.14-3.15H21.2a2.7,2.7,0,0,1,1.29-.13h7.07c.41,0,1,.13,1-.56s.2-1.36-.21-2c.43-.25.11-.76.46-1.18h5c.42,0,.89.12,1.2-.33.48,1,1.36.28,2,.4a20.33,20.33,0,0,0,3.58.06l0-.45a12.06,12.06,0,0,1-2.69-.05C39,3.21,37.89,3.76,37,3Zm3-2c-.49,0-.89.24-.93.83a.8.8,0,0,0,.79,1A.88.88,0,0,0,41,1.94C41,1.39,40.69,1.06,40.08,1Z"/><path class="cls-1" d="M59.05,7.66c-2.7-.29-5.41,0-8.12-.15-.52,0-1.23.37-1.51-.51a1.81,1.81,0,0,1,.51-2H61c.07.11.14.11.21,0,1.87-.08,2.44.45,2.44,2.33q0,17.12,0,34.22a9,9,0,0,1-2.46,1.22c-.37-.41-.21-.92-.21-1.38q0-16,0-32c0-.43,0-.87-.07-1.3s-.59-.35-.92-.45a.3.3,0,0,0-.42,0Z"/><path class="cls-1" d="M30.31,5c.41.63.2,1.32.21,2s-.55.55-1,.56H22.49a2.7,2.7,0,0,0-1.29.13l-.54,0c-.39-.09-.79-.23-1.13.14l0,31.63a13.44,13.44,0,0,1-2.37.94.72.72,0,0,1-.11-.19l0-.31v-.41c0-.43.12-.87.12-1.3V6.1A1.64,1.64,0,0,1,18.83,5c.15.19.29.17.43,0Z"/><path class="cls-2" d="M78.65,61.25c-1.45,1.85-2.45,4-3.78,5.92-1.63,2.36-3.25,4.72-5,7-.16.21-.28.49-.62.51-.24-.19-.11-.43,0-.63l7.31-20.46a5.12,5.12,0,0,1,.27-.52c2.06-.46,4.22-.68,6-2.54-.28,2.49-1.42,4.37-2.07,6.41C80.19,58.45,78.92,59.61,78.65,61.25Z"/><path class="cls-4" d="M5.14,42.76A31.55,31.55,0,0,1,0,44.16c.68-1.69,1.24-3.06,1.79-4.44.77-1.42,1.56-2.83,2.29-4.27a3.9,3.9,0,0,1,4.13-2.32l1.61,2c.65-.44.47-1.15.77-1.64a1.44,1.44,0,0,1,1.57.58c.56,1.12,1.78,1.68,2.06,3.09A17.72,17.72,0,0,0,16,41a.19.19,0,0,0,0,.15c-.1,1-.54,2.18.71,2.89-.41.54-.74.43-1.08-.1s-.88-1.28-1.3-1.88c-.07-.53.55-.34.63-.69s-.14-.73-.58-1a7.61,7.61,0,0,0-6.73-.51,8.14,8.14,0,0,0-1.51-3,17.14,17.14,0,0,0-2.39,4l1.89-.43A5.55,5.55,0,0,0,5.14,42.76Z"/><path class="cls-1" d="M78.65,61.25c.27-1.64,1.54-2.8,2-4.34.65-2,1.79-3.92,2.07-6.41-1.77,1.86-3.93,2.08-6,2.54.09-.4.18-.8.26-1.21.74-.5,1.62-.16,2.43-.4,1.45-.42,2.06-1.16,1.85-2.69,0-.26-.27-.5,0-.88,1.09.4.62,1.91,1.63,2.33.09-.16.19-.32.28-.49.63,4.23.17,8.44-.22,12.64-.36,3.81-1,7.6-1.62,11.37,0,.22-.13.43-.19.64l-.39,0Z"/><path class="cls-4" d="M61.19,42.76a9,9,0,0,0,2.46-1.22c1.07-.32,1.92-1.2,3.11-1.19-.37,1.78-.72,3.56-1.11,5.34-.11.5-.62.66-1,.89a18.61,18.61,0,0,0-3.42,1.87,6.16,6.16,0,0,1-1.28-.12c-1.46-.25-2.18.33-2.31,1.76a5.84,5.84,0,0,1-2,1A2.25,2.25,0,0,0,55,49.88L53.74,47a.67.67,0,0,1,.3-.55l2.2-1.15.49-.23,4.1-2.15C61,42.92,61.13,43,61.19,42.76Z"/><path class="cls-5" d="M8.21,33.13a3.9,3.9,0,0,0-4.13,2.32c-.73,1.44-1.52,2.85-2.29,4.27-2.7-3.24-1.26-6.13,3.57-7.07.22-1.64.82-3,2.8-3,.39,0,.38-.36.51-.57A3.37,3.37,0,0,1,11,27.55a2.11,2.11,0,0,1,2.24.75,2.14,2.14,0,0,1,.24,2.36c-.46.88-1.28.81-2.09.74A2.8,2.8,0,0,1,9.5,30.16,5.18,5.18,0,0,1,8.21,33.13Z"/><path class="cls-4" d="M82.09,32.23a25.32,25.32,0,0,0,4.08-2.09c.77-.44,1.24-.23,1.63.59a3.9,3.9,0,0,0,1.1,1.75l.36,1.66-4.44,2.18a6.17,6.17,0,0,0-1.45-.44A2.63,2.63,0,0,0,81,37c-.37.52.15.83.46,1.16l-1,.42c-.68-1.48-1.37-2.95-2-4.43Z"/><path class="cls-6" d="M74.37,43.48a22.24,22.24,0,0,1,.7,4.73c-.81,1.73-2.62,2-4.09,3.06l-.83-2.47c-.15-.45.17-.72.39-1a10.91,10.91,0,0,0,2.18-5h0c.2,0,.21-.16.23-.3l.43-1Z"/><path class="cls-6" d="M7.61,39.82a7.61,7.61,0,0,1,6.73.51c.44.27.68.5.58,1a2.57,2.57,0,0,0-2.24.44,1.37,1.37,0,0,1-1.21.3c-.53-1.47-1.16-1.55-2.82-.33-1.26,0-2.27.93-3.51,1a5.55,5.55,0,0,1,.46-2.38Z"/><path class="cls-6" d="M90.11,31.93l-1.27-2.81c1.17-1.13,2.38-1.47,3.38-1A2.93,2.93,0,0,1,93.57,31c-.2,1.41-1.4,1.69-2.43,2.18C90.59,32.93,90.54,32.28,90.11,31.93Z"/><path class="cls-5" d="M71.93,32.91l-.27.23c-1.21.41-1.45-.4-1.56-1.37-.62.41-1.21.18-1.78.17a6.81,6.81,0,0,1-3.06-2.18c1.81-1.41,5.29-.63,6.7,1C72.52,31.45,72.17,32.2,71.93,32.91Z"/><path class="cls-1" d="M74.37,43.48l-1-2A7.41,7.41,0,0,0,70.89,38c-.28,2.3-1.15,4.16-1.6,6.14-.47,1.18-1,2.32-1.39,3.53a1.92,1.92,0,0,1-2.17,1.54c.1-.85,1.34-.58,1.42-1.43a19.13,19.13,0,0,1,1-3.46c.61-2.2,1.12-4.42,1.7-6.63.13-.48.49-.53,1-.3a6.15,6.15,0,0,1,2.29,2.35c.18.26.3.91.71-.11A30.71,30.71,0,0,1,74.37,43.48Z"/><path class="cls-4" d="M69.29,44.16c.45-2,1.32-3.84,1.6-6.14a7.41,7.41,0,0,1,2.47,3.47l-.43,1-.23.3h0C71.42,42.83,70.52,43.89,69.29,44.16Z"/><path class="cls-7" d="M8.94,59.06c.44-3.05.65-6.14,2.13-9-.15,1.22-.3,2.45-.43,3.68a37.46,37.46,0,0,0-.27,7.78,7,7,0,0,1-.14,3.18,31,31,0,0,1-1-4.67A2,2,0,0,0,8.94,59.06Z"/><path class="cls-4" d="M8.65,41.74c1.66-1.22,2.29-1.14,2.82.33l-.44.55c.94,0,1.62-.6,2.47-.53a2.91,2.91,0,0,1,.05,1.73,4.75,4.75,0,0,1-4.47-.08C8.93,43.07,8.79,42.41,8.65,41.74Z"/><path class="cls-6" d="M11.45,68.45l2.48.29c.17,1.46.33,2.91.5,4.37l-.8.06A19.46,19.46,0,0,1,11.45,68.45Z"/><path class="cls-6" d="M16.67,44c-1.25-.71-.81-1.84-.71-2.89a.48.48,0,0,0,.16-.13l.17-.15c.29,0,.62.07.84-.22h0l2.33-.55v1.07A11.11,11.11,0,0,0,17,44Z"/><path class="cls-6" d="M5.45,67.73a3.13,3.13,0,0,0,2.05.43A32.69,32.69,0,0,1,7.19,73l-.78-.09A21.63,21.63,0,0,1,5.45,67.73Z"/><path class="cls-8" d="M17.11,6.1v32c0,.43-.08.87-.12,1.3a2.37,2.37,0,0,1-.12-1.18q0-15.44,0-30.88C16.88,6.93,16.76,6.47,17.11,6.1Z"/><path class="cls-6" d="M81.49,38.13c-.31-.33-.83-.64-.46-1.16a2.63,2.63,0,0,1,2.34-1.09,6.17,6.17,0,0,1,1.45.44C84.27,38.23,83.22,38.8,81.49,38.13Z"/><path class="cls-6" d="M8.21,33.13a5.18,5.18,0,0,0,1.29-3,2.8,2.8,0,0,0,1.88,1.24c0,1.3-1.43.78-1.94,1.43.31.54.92.22,1.15.64-.3.49-.12,1.2-.77,1.64Z"/><path class="cls-6" d="M68.32,31.94c.57,0,1.16.24,1.78-.17.11,1,.35,1.78,1.56,1.37.09.48-.24.66-.6.81-.73-.29-1.67.22-2.25-.77A2.16,2.16,0,0,1,68.32,31.94Z"/><path class="cls-5" d="M82,75.68H77.32a21.77,21.77,0,0,1,3.54-1C81.35,74.49,81.57,75.14,82,75.68Z"/><path class="cls-5" d="M69.28,74.76l.76.89H65.45l0-.16Z"/><path class="cls-1" d="M37,3c.85.76,1.91.21,2.86.42a12.06,12.06,0,0,0,2.69.05l0,.45A20.33,20.33,0,0,1,39,3.86c-.67-.12-1.55.6-2-.4Z"/><path class="cls-9" d="M90.11,31.93c.43.35.48,1,1,1.26a8.1,8.1,0,0,1-1.88,1l-.36-1.66Z"/><path class="cls-7" d="M14.9,74.86a12,12,0,0,1,2.75.86H14c-.2-.46.23-.59.31-.86Z"/><path class="cls-7" d="M8.23,75.07c.47.26,1.1.07,1.64.6a13.57,13.57,0,0,1-3.36,0c-.14-.45.32-.56.36-.87A2.21,2.21,0,0,0,8.23,75.07Z"/><path class="cls-3" d="M8.23,75.07a2.21,2.21,0,0,1-1.36-.22c-.15-.64-.31-1.29-.46-1.94l.78.09C7.42,73.75,6.86,74.89,8.23,75.07Z"/><path class="cls-3" d="M14.9,74.86h-.56c-.08-.63-.76-1-.71-1.69l.8-.06A3.66,3.66,0,0,1,14.9,74.86Z"/><path class="cls-8" d="M19.48,40.07l-2.33.55c0-.1,0-.2,0-.29a13.44,13.44,0,0,0,2.37-.94l.55.39C19.94,40,19.71,40,19.48,40.07Z"/><path class="cls-8" d="M17.13,40.61c-.22.29-.55.21-.84.22C16.51,40.54,16.84,40.63,17.13,40.61Z"/><path class="cls-2" d="M19.26,5c-.14.18-.28.2-.43,0Z"/><path class="cls-1" d="M83,48.8a.2.2,0,0,0,0-.21.88.88,0,0,1,0,.15Z"/><path class="cls-2" d="M61.19,5c-.07.1-.14.1-.21,0A.15.15,0,0,1,61.19,5Z"/><path class="cls-8" d="M16.12,41a.48.48,0,0,1-.16.13A.19.19,0,0,1,16,41,.11.11,0,0,1,16.12,41Z"/><path class="cls-8" d="M17,39.83l0,.31C16.87,40.06,16.86,40,17,39.83Z"/><path class="cls-6" d="M60.84,70V50.18c-1.2.27-2.25.7-3.23-.09.13-1.43.85-2,2.31-1.76a6.16,6.16,0,0,0,1.28.12l.65,1c-1.09.56-1,1.53-1,2.56C60.85,58,60.84,64,60.84,70Z"/><path class="cls-1" d="M82.09,32.23l-3.61,1.89c-.29-.16-.67-.53-.31-.68,1.24-.52,2.37-1.44,3.84-1.29C82,32.15,82.06,32.2,82.09,32.23Z"/><path class="cls-1" d="M46.63,11.16a5.74,5.74,0,0,1-4.38,1.39,44.31,44.31,0,0,0-4.89,0,4.7,4.7,0,0,1-3.27-1.13c2.8.76,5.68.24,8.5.49C44.06,12,45.26,11.27,46.63,11.16Z"/><path class="cls-1" d="M48.06,10.43a3.22,3.22,0,0,1-1.45.76A1.35,1.35,0,0,1,48.06,10.43Z"/><path class="cls-1" d="M34.12,11.41a.62.62,0,0,1-.61-.27C33.75,11.15,34,11.14,34.12,11.41Z"/><path class="cls-1" d="M33.15,11l-.44-.15C32.93,10.64,33.08,10.68,33.15,11Z"/><path class="cls-1" d="M48.54,10.18a.6.6,0,0,1-.5.27C48.13,10.22,48.33,10.19,48.54,10.18Z"/><path class="cls-1" d="M33.43,11.13c-.14,0-.28,0-.31-.21Z"/><path class="cls-2" d="M60.83,42.93q0-9.19,0-18.39,0-7.59,0-15.17c0-.43.06-.86.1-1.29,0,.43.07.87.07,1.3q0,16,0,32c0,.46-.16,1,.21,1.38C61.13,43,61,42.92,60.83,42.93Z"/><path class="cls-2" d="M60,7.63h-.42A.3.3,0,0,1,60,7.63Z"/><path class="cls-2" d="M20.66,7.62l-1.13.14C19.87,7.39,20.27,7.53,20.66,7.62Z"/><path class="cls-5" d="M7.61,39.82l-2,.56-1.89.43a17.14,17.14,0,0,1,2.39-4A8.14,8.14,0,0,1,7.61,39.82Z"/><path class="cls-6" d="M53.74,47c-1,1-1.84.55-2.65-.36a16.84,16.84,0,0,0-1.61-1.42c-.23-.21-.34-.48-.13-.73s.52-.14.73,0c.81.69,1.6,1.39,2.46,2.15A27.33,27.33,0,0,0,54.65,43a.62.62,0,0,0,.31-.52c.73-1.27,1.45-2.55,2.2-3.82.19-.32.41-.81.9-.47s.07.66-.09,1c-.74,1.36-1.51,2.71-2.26,4.06l-.29.52A6.44,6.44,0,0,0,54,46.46.67.67,0,0,0,53.74,47Z"/><path class="cls-9" d="M51.81,50.65,55,49.89a2.18,2.18,0,0,1,.56,1.16l-3.79,0C51.8,51,51.81,50.8,51.81,50.65Z"/><path class="cls-1" d="M56.24,45.31a4.63,4.63,0,0,0-.82-1.55l.29-.52a3.62,3.62,0,0,1,1,1.84Z"/><path class="cls-1" d="M56.91,60.25a4.62,4.62,0,1,1-4.64-4.75A4.61,4.61,0,0,1,56.91,60.25Zm-4.58,3.91a4,4,0,1,0-.12-8.06,4,4,0,0,0,.12,8.06Z"/><path class="cls-1" d="M55.49,15.4a4.35,4.35,0,0,1,1.09,5,4.61,4.61,0,0,1-8.4.35,4.37,4.37,0,0,1,.59-5,4.41,4.41,0,0,1,4.85-1.45,9.48,9.48,0,0,1,1.11.44l-.29.52c-.3-.13-.58-.28-.88-.38-2-.7-4.53.5-4.83,2.24l0,0a1.79,1.79,0,0,0-.49,1.4,4.09,4.09,0,0,0,2.85,4.09,4,4,0,0,0,4.45-1.5A3.92,3.92,0,0,0,55.22,16,.61.61,0,0,1,55.49,15.4Z"/><path class="cls-1" d="M55.64,29.3c1.58,2,1.7,4.22.34,6a4.63,4.63,0,0,1-7.88-4.76c1.2-2.58,4.14-3.39,6.79-1.88l-.37.41c-.25-.12-.5-.25-.76-.35a4,4,0,0,0-3,7.5,4.12,4.12,0,0,0,4.66-1.13c1.28-1.56,1.27-3.31,0-5.27C55.44,29.66,55.41,29.42,55.64,29.3Z"/><path class="cls-6" d="M55.64,29.3c-.23.12-.2.36-.26.56-1.19,1.49-1.84,3.32-3,4.94l-3-2.63c-.29-.26-.78-.5-.44-1s.7,0,1,.25a17.08,17.08,0,0,0,2.34,1.89c.67-1.5,1.74-2.72,2.26-4.25l.37-.41c.59-1.08,1.18-2.15,1.78-3.22.18-.34.36-.85.85-.6s.12.75-.06,1.09C56.87,27.09,56.25,28.19,55.64,29.3Z"/><path class="cls-6" d="M55.49,15.4a.61.61,0,0,0-.27.55l-2.85,4.74c-.8-.72-1.54-1.36-2.26-2-.5-.47-1.25-.74-1.36-1.56l0,0c.44-.35.75-.14,1.13.16a12.84,12.84,0,0,0,2.41,1.91l2.17-3.93.29-.52c.66-1.17,1.33-2.34,2-3.51.18-.31.38-.7.81-.48s.21.6,0,.92Z"/><path class="cls-1" d="M45.11,31.65H23.92v-.16H45.09Z"/><path class="cls-1" d="M45,46.44H24v-.19H45Z"/><path class="cls-1" d="M55,42.52a.62.62,0,0,1-.31.52,4,4,0,0,0-5.83,1.2c-1.23,2-.53,4.29,1.78,5.79,0,.28-.19.37-.43.41a4.48,4.48,0,0,1-2.42-4.77,4.32,4.32,0,0,1,3-3.68A4.58,4.58,0,0,1,55,42.52Z"/><path class="cls-1" d="M23.81,60.41H42.46v.19H23.79Z"/><path class="cls-1" d="M40.32,48.92H23.94v-.18H40.3Z"/><path class="cls-1" d="M23.75,58.4H38.5v.17H23.78Z"/><ellipse class="cls-1" cx="34.48" cy="17.43" rx="15.08" ry="0.12"/><path class="cls-1" d="M45,63.07H24.62v-.15H45Z"/><path class="cls-1" d="M38.93,33.39H24v-.15H38.88Z"/><path class="cls-1" d="M45,44.16H32.14V44H45Z"/><ellipse class="cls-1" cx="31.3" cy="29.94" rx="8.56" ry="0.11"/><path class="cls-1" d="M24,21.2H35.66v.15H24Z"/><ellipse class="cls-1" cx="37.11" cy="19.39" rx="6.79" ry="0.09"/><path class="cls-6" d="M50.17,50.44c.24,0,.42-.13.43-.41.87-.7.77.49,1.21.62,0,.15,0,.3,0,.44H50.06C49.88,50.81,50.15,50.65,50.17,50.44Z"/><path class="cls-1" d="M38,21.21h7.17v.15H38Z"/><path class="cls-1" d="M40.27,29.87h4.79V30h-4.8Z"/><path class="cls-1" d="M28.51,44.13H24V44h4.49Z"/></g></g></svg>